<svg version="1.1" id="Layer_1" xmlns="http://www.w3.org/2000/svg" xmlns:xlink="http://www.w3.org/1999/xlink" x="0px" y="0px"
	 width="100%" viewBox="0 0 900 900" enable-background="new 0 0 900 900" xml:space="preserve">
<path fill="#2CB9F1" opacity="1.000000" stroke="none" 
	d="
M604.000000,901.000000 
	C402.666656,901.000000 201.833328,901.000000 1.000000,901.000000 
	C1.000000,601.000000 1.000000,301.000000 1.000000,1.000000 
	C301.000000,1.000000 601.000000,1.000000 901.000000,1.000000 
	C901.000000,301.000000 901.000000,601.000000 901.000000,901.000000 
	C802.166687,901.000000 703.333313,901.000000 604.000000,901.000000 
M596.456421,334.029449 
	C598.368347,334.352417 600.279480,334.951019 602.192322,334.956390 
	C625.352844,335.021271 648.513550,334.998932 671.674255,334.998718 
	C697.500916,334.998474 723.327881,335.049744 749.153564,334.890930 
	C751.066223,334.879181 752.969482,333.355194 754.712769,331.667480 
	C754.680115,303.432648 754.664246,275.197754 754.583496,246.963074 
	C754.576965,244.669388 754.126160,242.376968 754.021606,239.479630 
	C752.323792,238.987228 750.626953,238.069489 748.927917,238.065247 
	C715.126221,237.980850 681.324280,238.009338 647.522339,238.000320 
	C573.258301,237.980530 498.994232,237.952576 424.438110,237.041107 
	C424.375153,206.379181 424.294556,175.717255 424.273071,145.055298 
	C424.270569,141.508652 424.440155,138.761932 419.253693,138.770248 
	C329.758118,138.913757 240.262222,138.903763 150.766525,138.806717 
	C146.533752,138.802124 145.457626,140.231705 145.477646,144.290070 
	C145.625717,174.287933 145.670181,204.287704 145.447922,234.284653 
	C145.410400,239.349457 147.317062,240.355453 151.855347,240.349091 
	C240.184174,240.225128 328.513153,240.223709 416.842133,240.195541 
	C424.135559,240.193207 424.136871,240.187790 424.137360,247.564728 
	C424.148071,413.223633 424.158325,578.882568 424.169525,744.541443 
	C424.169983,751.465515 424.173798,751.490906 430.942902,751.493652 
	C461.108124,751.506104 491.273376,751.502441 521.438599,751.505371 
	C528.791016,751.506104 528.798950,751.507568 528.799194,744.166992 
	C528.802795,631.672241 528.802307,519.177490 528.813232,406.682709 
	C528.813660,402.683990 528.775330,398.676849 529.004028,394.687897 
	C531.109558,357.961578 564.006653,333.434265 596.456421,334.029449 
z"/>
<path fill="#FDFEFF" opacity="1.000000" stroke="none" 
	d="
M753.881775,240.083969 
	C754.126160,242.376968 754.576965,244.669388 754.583496,246.963074 
	C754.664246,275.197754 754.680115,303.432648 754.344360,332.211182 
	C751.484436,332.860779 748.992920,333.057800 746.501282,333.058990 
	C698.837524,333.081848 651.173706,333.076691 603.509949,333.100708 
	C601.019348,333.101959 598.528809,333.311371 596.038269,333.423889 
	C564.006653,333.434265 531.109558,357.961578 529.004028,394.687897 
	C528.775330,398.676849 528.813660,402.683990 528.813232,406.682709 
	C528.802307,519.177490 528.802795,631.672241 528.799194,744.166992 
	C528.798950,751.507568 528.791016,751.506104 521.438599,751.505371 
	C491.273376,751.502441 461.108124,751.506104 430.942902,751.493652 
	C424.173798,751.490906 424.169983,751.465515 424.169525,744.541443 
	C424.158325,578.882568 424.148071,413.223633 424.137360,247.564728 
	C424.136871,240.187790 424.135559,240.193207 416.842133,240.195541 
	C328.513153,240.223709 240.184174,240.225128 151.855347,240.349091 
	C147.317062,240.355453 145.410400,239.349457 145.447922,234.284653 
	C145.670181,204.287704 145.625717,174.287933 145.477646,144.290070 
	C145.457626,140.231705 146.533752,138.802124 150.766525,138.806717 
	C240.262222,138.903763 329.758118,138.913757 419.253693,138.770248 
	C424.440155,138.761932 424.270569,141.508652 424.273071,145.055298 
	C424.294556,175.717255 424.375153,206.379181 424.594360,237.934616 
	C426.917755,239.242172 429.084717,240.017181 431.252106,240.018463 
	C538.795288,240.082108 646.338562,240.079407 753.881775,240.083969 
M420.000000,213.445221 
	C420.000000,193.281128 420.000885,173.117035 419.999664,152.952942 
	C419.999084,143.485550 419.534332,143.002350 410.215118,143.001968 
	C329.725067,142.998611 249.235001,142.974548 168.745041,143.055466 
	C163.160294,143.061081 157.504257,143.479584 152.036469,144.520676 
	C150.421295,144.828217 148.203354,147.920380 148.183701,149.757019 
	C147.925339,173.917908 147.870865,198.083679 148.080994,222.245483 
	C148.163727,231.758575 152.863831,235.999695 162.091171,235.999741 
	C244.414322,236.000168 326.737488,236.000427 409.060638,235.997147 
	C410.893188,235.997070 412.747681,236.127991 414.554199,235.899567 
	C420.157257,235.191101 422.121735,232.251923 421.257751,226.802017 
	C420.609375,222.712402 420.403107,218.552704 420.000000,213.445221 
z"/>
<path fill="#29ADDE" opacity="1.000000" stroke="none" 
	d="
M753.951660,239.781799 
	C646.338562,240.079407 538.795288,240.082108 431.252106,240.018463 
	C429.084717,240.017181 426.917755,239.242172 424.740387,238.378036 
	C498.994232,237.952576 573.258301,237.980530 647.522339,238.000320 
	C681.324280,238.009338 715.126221,237.980850 748.927917,238.065247 
	C750.626953,238.069489 752.323792,238.987228 753.951660,239.781799 
z"/>
<path fill="#22ABE1" opacity="1.000000" stroke="none" 
	d="
M596.247314,333.726685 
	C598.528809,333.311371 601.019348,333.101959 603.509949,333.100708 
	C651.173706,333.076691 698.837524,333.081848 746.501282,333.058990 
	C748.992920,333.057800 751.484436,332.860779 754.426575,332.644592 
	C752.969482,333.355194 751.066223,334.879181 749.153564,334.890930 
	C723.327881,335.049744 697.500916,334.998474 671.674255,334.998718 
	C648.513550,334.998932 625.352844,335.021271 602.192322,334.956390 
	C600.279480,334.951019 598.368347,334.352417 596.247314,333.726685 
z"/>
<path fill="#FDFFFF" opacity="1.000000" stroke="none" 
	d="
M420.000000,213.934708 
	C420.403107,218.552704 420.609375,222.712402 421.257751,226.802017 
	C422.121735,232.251923 420.157257,235.191101 414.554199,235.899567 
	C412.747681,236.127991 410.893188,235.997070 409.060638,235.997147 
	C326.737488,236.000427 244.414322,236.000168 162.091171,235.999741 
	C152.863831,235.999695 148.163727,231.758575 148.080994,222.245483 
	C147.870865,198.083679 147.925339,173.917908 148.183701,149.757019 
	C148.203354,147.920380 150.421295,144.828217 152.036469,144.520676 
	C157.504257,143.479584 163.160294,143.061081 168.745041,143.055466 
	C249.235001,142.974548 329.725067,142.998611 410.215118,143.001968 
	C419.534332,143.002350 419.999084,143.485550 419.999664,152.952942 
	C420.000885,173.117035 420.000000,193.281128 420.000000,213.934708 
z"/>
</svg>